{"title":"Foeksia de Miniheks-AC3-XviD-DVDRip 2010 Nederlands TBS","uid":6151737,"size":1462388677,"categoryP":"video","categoryS":"movies","magnet":"?xt=urn:btih:389e853bf5c96db65d7272d97993d12cea23ee09&amp;dn=Foeksia+de+Miniheks-AC3-XviD-DVDRip+2010+Nederlands+TBS&amp;tr=udp%3A%2F%2Ftracker.openbittorrent.com%3A80&amp;tr=udp%3A%2F%2Fopen.demonii.com%3A1337&amp;tr=udp%3A%2F%2Ftracker.coppersurfer.tk%3A6969&amp;tr=udp%3A%2F%2Fexodus.desync.com%3A6969","seeders":3,"leechers":0,"uploader":"FatFreddy30","files":-1,"time":1296900239,"description":"Nederland\nFamilie\n84 minuten\n\ngeregisseerd door Johan Nijenhuis\nmet Rachelle Verdel, Annet Malherbe en Porgy Franssen\n\nTovenaar Kwark vindt in het Heksenbos een ei, waar een klein meisje uit komt. Het is een miniheksje, dat hij Foeksia noemt. Foeksia gaat naar de Heksenschool om toveren te leren. De school wordt geleid door Juf Minuul, die een oogje heeft op Kwark. Foeksia geeft vader Kwark veel kopzorgen, omdat ze nieuwsgierig is naar de mensenwereld. Als Foeksia in het bos jongetje Tommie ziet, wint haar nieuwsgierigheid en zoekt ze Tommie op in de mensenstad. Daar komt ze erachter dat Tommie's oom Bob het Heksenbos wil platgooien om een snelweg aan te leggen. Foeksia zal samen met Tommie het Heksenbos moeten redden. Verfilming van het gelijknamige boek van Paul van Loon.\n  &lt;a href=&quot;\nhttp://www.moviemeter.nl/film/68965&quot; rel=&quot;nofollow&quot; target=&quot;_NEW&quot;&gt;\nhttp://www.moviemeter.nl/film/68965&lt;/a&gt;\n &lt;a href=&quot;\nhttp://www.imdb.com/title/tt1382720/&quot; rel=&quot;nofollow&quot; target=&quot;_NEW&quot;&gt;\nhttp://www.imdb.com/title/tt1382720/&lt;/a&gt;\n\nAudio: Dutch-Nederlands. Subs: None-Geen\n\nHoesjes bijgevoegd.\n\nGeneral\nComplete name                    : Foeksia de Miniheks-AC3-XviD-DVDRip 2010 Nederlands TBS\\Foeksia de Miniheks-AC3-XviD-DVDRip 2010 Nederlands TBS.avi\nFormat                           : AVI\nFormat/Info                      : Audio Video Interleave\nFile size                        : 1.36 GiB\nDuration                         : 1h 24mn\nOverall bit rate                 : 2 306 Kbps\nWriting application              : VirtualDubMod 1.5.4.1 (build 2178/release)\nWriting library                  : VirtualDubMod build 2178/release\n\nVideo\nID                               : 0\nFormat                           : MPEG-4 Visual\nFormat profile                   : Simple@L3\nFormat settings, BVOP            : No\nFormat settings, QPel            : No\nFormat settings, GMC             : No warppoints\nFormat settings, Matrix          : Default (H.263)\nCodec ID                         : XVID\nCodec ID/Hint                    : XviD\nDuration                         : 1h 24mn\nBit rate                         : 1 848 Kbps\nWidth                            : 720 pixels\nHeight                           : 304 pixels\nDisplay aspect ratio             : 2.35:1\nFrame rate                       : 25.000 fps\nResolution                       : 8 bits\nColorimetry                      : 4:2:0\nScan type                        : Progressive\nBits/(Pixel*Frame)               : 0.338\nStream size                      : 1.09 GiB (80%)\nWriting library                  : XviD 1.1.2 (UTC 2006-11-01)\n\nAudio\nID                               : 1\nFormat                           : AC-3\nFormat/Info                      : Audio Coding 3\nCodec ID                         : 2000\nDuration                         : 1h 24mn\nBit rate mode                    : Constant\nBit rate                         : 448 Kbps\nChannel(s)                       : 6 channels\nChannel positions                : Front: L C R, Surround: L R, LFE\nSampling rate                    : 48.0 KHz\nStream size                      : 271 MiB (19%)\nAlignment                        : Split accross interleaves\nInterleave, duration             : 40 ms (1.00 video frame)\nInterleave, preload duration     : 500 ms\n\nThanks to Just4fun-Team.\n\nBlackbeard  TBS.","torrent":{"xt":"urn:btih:389e853bf5c96db65d7272d97993d12cea23ee09","amp;dn":"Foeksia+de+Miniheks-AC3-XviD-DVDRip+2010+Nederlands+TBS","amp;tr":["udp%3A%2F%2Ftracker.openbittorrent.com%3A80","udp%3A%2F%2Fopen.demonii.com%3A1337","udp%3A%2F%2Ftracker.coppersurfer.tk%3A6969","udp%3A%2F%2Fexodus.desync.com%3A6969"],"infoHash":"389e853bf5c96db65d7272d97993d12cea23ee09","infoHashBuffer":{"type":"Buffer","data":[56,158,133,59,245,201,109,182,93,114,114,217,121,147,209,44,234,35,238,9]},"announce":[],"urlList":[]}}